<?xml version="1.0" standalone="no"?>
<!DOCTYPE svg PUBLIC "-//W3C//DTD SVG 20010904//EN"
 "http://www.w3.org/TR/2001/REC-SVG-20010904/DTD/svg10.dtd">
<svg version="1.0" xmlns="http://www.w3.org/2000/svg"
 width="475.000000pt" height="475.000000pt" viewBox="0 0 475.000000 475.000000"
 preserveAspectRatio="xMidYMid meet">
<metadata>
Created by potrace 1.14, written by Peter Selinger 2001-2017
</metadata>
<g transform="translate(0.000000,475.000000) scale(0.100000,-0.100000)"
fill="#000000" stroke="none">
<path d="M4364 4639 c-194 -32 -446 -159 -602 -304 -60 -55 -116 -147 -157
-257 -10 -27 -21 -48 -25 -48 -3 0 -17 11 -29 24 -21 22 -23 33 -19 90 2 36 1
66 -2 66 -4 0 -12 -25 -19 -56 -13 -57 -30 -67 -42 -23 -4 13 -7 18 -8 12 -1
-7 -5 -13 -11 -13 -15 0 -180 109 -180 120 0 5 -8 7 -17 4 -15 -5 -16 -4 -3 5
18 13 43 15 36 2 -6 -9 34 -2 174 30 47 11 86 23 88 29 2 5 9 7 16 4 8 -3 20
2 29 10 8 8 17 12 21 9 3 -4 6 0 6 7 0 7 3 11 6 7 3 -3 11 -2 18 4 6 5 34 27
63 49 45 35 103 110 103 135 0 5 -12 -3 -27 -17 -55 -51 -142 -82 -303 -108
-98 -16 -160 -41 -236 -96 l-62 -44 -65 30 c-393 178 -875 227 -1319 134 -296
-62 -606 -207 -863 -403 -84 -64 -275 -252 -348 -341 -408 -506 -565 -1162
-431 -1802 65 -312 224 -641 431 -898 141 -174 368 -371 563 -488 675 -404
1525 -404 2200 0 195 117 422 314 563 488 403 499 561 1144 436 1780 -49 250
-175 548 -328 774 l-74 110 23 18 c12 10 44 26 71 35 27 10 49 21 49 24 0 8
-63 -5 -122 -26 -31 -10 -44 -11 -49 -3 -5 7 22 30 69 59 169 105 247 187 247
259 0 20 -15 68 -33 107 -27 58 -31 78 -26 112 14 89 92 171 229 241 94 49 78
51 -55 4 -203 -70 -280 -148 -341 -348 -42 -135 -71 -190 -108 -205 -69 -29
-110 29 -90 127 35 173 182 366 361 475 64 39 198 86 246 88 15 0 36 4 47 9
16 7 13 9 -15 8 -19 0 -58 -4 -86 -9z m-1804 -400 c212 -36 400 -98 523 -173
41 -25 97 -75 97 -87 0 -4 -17 -13 -37 -20 -57 -18 -82 -38 -105 -83 -33 -65
-78 -127 -89 -121 -5 4 -2 19 7 37 9 17 14 38 11 48 -2 9 2 28 9 41 7 13 13
33 13 44 1 16 -5 13 -32 -17 -34 -40 -105 -77 -148 -78 -14 0 -87 16 -163 34
-176 45 -310 60 -461 53 -253 -12 -558 -103 -749 -225 -34 -21 -58 -27 -143
-33 -99 -7 -166 0 -185 19 -20 20 -27 85 -13 124 35 104 117 172 327 272 360
173 751 229 1138 165z m-176 -467 c42 -6 47 -9 34 -20 -11 -9 -69 -14 -194
-16 -197 -5 -290 -20 -449 -76 -382 -135 -718 -483 -853 -885 -88 -263 -80
-599 19 -882 165 -467 547 -799 1042 -905 145 -30 389 -30 534 0 640 137 1082
652 1119 1305 5 76 12 121 20 128 20 16 28 -47 20 -159 -26 -356 -172 -675
-423 -924 -206 -203 -440 -328 -726 -390 -146 -31 -408 -31 -554 0 -286 62
-520 187 -726 390 -205 203 -337 446 -399 735 -31 146 -31 408 0 554 62 289
194 532 399 735 159 157 328 263 533 336 192 67 433 97 604 74z m381 -92 l40
-18 -43 -1 c-45 -1 -102 22 -102 40 0 13 51 3 105 -21z m825 -744 c-8 -7 -161
-106 -340 -219 -179 -113 -428 -271 -555 -352 l-230 -147 -200 6 c-109 4 -201
9 -203 11 -5 5 62 93 175 234 l68 84 640 198 c352 108 644 197 650 198 5 1 3
-5 -5 -13z m-2931 -673 c13 -154 37 -284 77 -416 15 -48 25 -89 23 -91 -7 -6
-381 -166 -388 -166 -8 0 -62 161 -85 255 -32 128 -66 393 -66 518 l0 37 213
0 214 0 12 -137z m3330 58 c16 -4 29 -21 42 -55 10 -26 20 -50 22 -53 3 -2 17
21 32 53 l27 57 60 -7 c34 -3 71 -6 82 -6 21 0 21 -2 14 -102 -8 -105 -24
-227 -31 -234 -2 -3 -37 2 -76 11 -40 8 -76 13 -81 10 -8 -5 -35 -134 -29
-139 2 -2 37 -13 77 -25 39 -12 72 -26 72 -31 0 -24 -81 -260 -97 -279 -2 -2
-91 38 -198 89 -155 74 -194 97 -189 109 4 9 21 58 38 108 18 51 35 95 38 99
3 3 38 -4 78 -16 40 -12 74 -19 77 -16 3 3 11 32 18 66 10 46 10 63 1 66 -6 2
-40 10 -75 18 -34 8 -65 17 -68 19 -2 3 0 40 6 82 6 42 11 98 11 124 0 26 3
51 7 54 8 9 110 7 142 -2z m-3168 -683 c17 -34 42 -79 55 -100 l24 -38 -110
-72 -110 -73 2 -40 c3 -32 9 -42 35 -58 l32 -18 103 80 c57 45 105 81 108 81
3 0 38 -36 79 -80 l73 -81 -106 -107 -105 -107 -83 28 c-46 16 -124 49 -175
74 -74 37 -93 51 -98 72 -14 65 -24 184 -25 276 l0 101 128 61 c70 34 130 62
134 62 4 1 22 -27 39 -61z m3007 -63 c8 -8 -111 -215 -124 -215 -2 0 -16 7
-30 16 -13 9 -26 15 -27 13 -2 -2 -18 -24 -37 -48 l-33 -43 20 -17 c12 -9 53
-42 92 -75 40 -32 73 -57 75 -55 1 2 19 26 40 53 l37 50 -27 21 -27 22 30 44
c16 24 46 74 67 112 20 37 39 67 42 67 2 0 36 -16 74 -35 l70 -35 -31 -63
c-71 -140 -213 -331 -341 -455 l-54 -52 -147 161 -147 161 86 91 c83 88 193
241 230 319 l17 37 71 -36 c39 -19 72 -37 74 -38z m-2619 -419 c85 -66 189
-131 290 -180 50 -25 96 -46 102 -48 7 -2 -1 -33 -21 -81 l-33 -77 -65 0 -66
0 42 -43 c23 -23 42 -48 42 -54 0 -17 -58 -143 -66 -143 -4 0 -60 25 -125 56
l-117 56 43 71 43 72 -26 18 c-79 53 -76 54 -127 -18 -26 -36 -49 -65 -52 -65
-19 0 -213 151 -210 163 3 10 280 316 286 317 3 0 30 -20 60 -44z m2251 -165
c72 -85 128 -157 123 -161 -73 -63 -229 -163 -345 -222 -79 -40 -240 -109
-244 -105 -4 4 -154 393 -154 398 0 4 21 14 48 24 85 32 255 124 337 184 59
43 83 55 92 47 6 -6 70 -80 143 -165z m-1721 -111 c108 -32 260 -60 359 -67
l92 -6 0 -85 0 -84 -67 6 c-38 4 -92 9 -121 13 l-52 5 6 33 c6 33 6 34 -43 42
-26 4 -52 8 -57 8 -8 0 -55 -172 -56 -206 0 -12 15 -19 56 -28 65 -13 74 -9
74 26 l0 25 78 -6 c179 -15 184 -16 178 -40 -3 -11 -6 -47 -6 -78 l0 -58 -57
0 c-68 0 -237 22 -343 44 -88 19 -251 66 -264 77 -8 7 140 399 151 399 3 0 36
-9 72 -20z m740 -147 c35 -262 31 -245 60 -239 14 2 43 7 64 11 36 6 37 7 32
38 l-6 32 121 29 c66 16 122 27 124 25 2 -2 15 -36 30 -76 l25 -72 -62 -20
c-145 -44 -383 -81 -529 -81 l-88 0 0 215 0 214 93 4 c50 1 99 4 108 5 13 2
18 -15 28 -85z"/>
<path d="M555 2105 c-5 -2 -54 -11 -107 -20 -111 -19 -107 -14 -87 -117 l11
-56 111 29 c61 16 112 30 113 32 4 4 -18 122 -25 128 -3 4 -10 5 -16 4z"/>
<path d="M1247 961 l-17 -29 44 -26 c25 -14 49 -26 54 -26 10 0 38 48 31 54
-2 1 -24 15 -49 29 l-46 27 -17 -29z"/>
<path d="M3138 934 c-27 -14 -48 -29 -48 -34 0 -8 93 -183 106 -199 2 -2 28
11 59 29 35 20 53 36 48 43 -4 7 -32 51 -63 98 l-55 87 -47 -24z"/>
<path d="M4570 4167 c-91 -40 -145 -74 -185 -117 -25 -26 -30 -39 -29 -78 0
-26 10 -69 22 -96 28 -63 28 -101 -1 -130 -32 -32 -148 -97 -244 -137 -45 -19
-83 -37 -83 -41 0 -3 68 11 152 33 83 22 158 37 165 34 9 -3 11 0 7 7 -5 8 -2
9 9 5 10 -4 17 -2 17 4 0 6 7 9 15 5 8 -3 15 -2 15 2 0 9 61 33 72 29 12 -4
87 81 94 107 5 20 -1 36 -22 66 -69 95 -78 137 -45 212 20 46 46 74 101 107
51 31 26 25 -60 -12z"/>
</g>
</svg>
